{"glyphs":{"!":{"ha":600,"x_min":0,"x_max":0,"o":"m 0 0 l 0 -700 l 200 -700 l 200 0 l -200 0 z m 0 -800 l 0 -100 l 200 -100 l 200 0 l -200 0 z"},"\"":{"ha":600,"x_min":0,"x_max":0,"o":"m 0 -700 l 0 -800 l 200 -800 l 200 -700 l -200 0 z m 400 -700 l 0 -800 l 200 -800 l 200 -700 l -200 0 z"},"#":{"ha":600,"x_min":0,"x_max":0,"o":"m 0 -200 l 0 -400 l 200 -400 l 200 200 l 200 -200 l 200 -400 l 200 -400 l 200 200 l 200 -200 l 200 -400 l 200 -400 l 200 200 l -200 200 l 200 200 l -200 200 l -200 -200 l -200 200 l -200 -200 l -200 200 l -200 -200 z"},"$":{"ha":600,"x_min":0,"x_max":0,"o":"m 0 -200 l 0 -600 l 200 -600 l 200 200 l 200 -200 l 200 -600 l 200 -600 l 200 200 l -200 200 l 200 200 l -200 200 l -200 -200 l -200 200 l -200 -200 z"},"%":{"ha":600,"x_min":0,"x_max":0,"o":"m 0 0 l 0 -800 l 200 -800 l 200 0 l -200 0 z m 400 0 l 0 -800 l 200 -800 l 200 0 l -200 0 z"},"&":{"ha":600,"x_min":0,"x_max":0,"o":"m 0 0 l 0 -800 l 200 -800 l 200 0 l -200 0 z m 400 0 l 0 -800 l 200 -800 l 200 0 l -200 0 z"},"'":{"ha":600,"x_min":0,"x_max":0,"o":"m 0 -700 l 0 -800 l 200 -800 l 200 -700 l -200 0 z"},"(":{"ha":600,"x_min":0,"x_max":0,"o":"m 0 0 l 0 -800 l 200 -800 l 200 0 l -200 0 z"},")":{"ha":600,"x_min":0,"x_max":0,"o":"m 0 0 l 0 -800 l 200 -800 l 200 0 l -200 0 z"},"*":{"ha":600,"x_min":0,"x_max":0,"o":"m 0 0 l 0 -800 l 200 -800 l 200 0 l -200 0 z"},"+":{"ha":600,"x_min":0,"x_max":0,"o":"m 0 0 l 0 -800 l 200 -800 l 200 0 l -200 0 z"},",":{"ha":600,"x_min":0,"x_max":0,"o":"m 0 0 l 0 -100 l 200 -100 l 200 0 l -200 0 z"},"-":{"ha":600,"x_min":0,"x_max":0,"o":"m 0 -400 l 0 -500 l 200 -500 l 200 -400 l -200 0 z"},".":{"ha":600,"x_min":0,"x_max":0,"o":"m 0 0 l 0 -100 l 200 -100 l 200 0 l -200 0 z"},"/":{"ha":600,"x_min":0,"x_max":0,"o":"m 0 0 l 0 -800 l 200 -800 l 200 0 l -200 0 z"},"0":{"ha":600,"x_min":0,"x_max":0,"o":"m 0 0 l 0 -800 l 200 -800 l 200 0 l -200 0 z"},"1":{"ha":600,"x_min":0,"x_max":0,"o":"m 0 0 l 0 -800 l 200 -800 l 200 0 l -200 0 z"},"2":{"ha":600,"x_min":0,"x_max":0,"o":"m 0 0 l 0 -800 l 200 -800 l 200 0 l -200 0 z"},"3":{"ha":600,"x_min":0,"x_max":0,"o":"m 0 0 l 0 -800 l 200 -800 l 200 0 l -200 0 z"},"4":{"ha":600,"x_min":0,"x_max":0,"o":"m 0 0 l 0 -800 l 200 -800 l 200 0 l -200 0 z"},"5":{"ha":600,"x_min":0,"x_max":0,"o":"m 0 0 l 0 -800 l 200 -800 l 200 0 l -200 0 z"},"6":{"ha":600,"x_min":0,"x_max":0,"o":"m 0 0 l 0 -800 l 200 -800 l 200 0 l -200 0 z"},"7":{"ha":600,"x_min":0,"x_max":0,"o":"m 0 0 l 0 -800 l 200 -800 l 200 0 l -200 0 z"},"8":{"ha":600,"x_min":0,"x_max":0,"o":"m 0 0 l 0 -800 l 200 -800 l 200 0 l -200 0 z"},"9":{"ha":600,"x_min":0,"x_max":0,"o":"m 0 0 l 0 -800 l 200 -800 l 200 0 l -200 0 z"},":":{"ha":600,"x_min":0,"x_max":0,"o":"m 0 0 l 0 -100 l 200 -100 l 200 0 l -200 0 z"},";":{"ha":600,"x_min":0,"x_max":0,"o":"m 0 0 l 0 -100 l 200 -100 l 200 0 l -200 0 z"},"<":{"ha":600,"x_min":0,"x_max":0,"o":"m 0 0 l 0 -800 l 200 -800 l 200 0 l -200 0 z"},"=":{"ha":600,"x_min":0,"x_max":0,"o":"m 0 -400 l 0 -500 l 200 -500 l 200 -400 l -200 0 z m 0 -200 l 0 -300 l 200 -300 l 200 -200 l -200 0 z"},">":{"ha":600,"x_min":0,"x_max":0,"o":"m 0 0 l 0 -800 l 200 -800 l 200 0 l -200 0 z"},"?":{"ha":600,"x_min":0,"x_max":0,"o":"m 0 0 l 0 -800 l 200 -800 l 200 0 l -200 0 z"},"@":{"ha":600,"x_min":0,"x_max":0,"o":"m 0 0 l 0 -800 l 200 -800 l 200 0 l -200 0 z"},"A":{"ha":600,"x_min":0,"x_max":0,"o":"m 0 0 l 0 -800 l 200 -800 l 200 0 l -200 0 z"},"B":{"ha":600,"x_min":0,"x_max":0,"o":"m 0 0 l 0 -800 l 200 -800 l 200 0 l -200 0 z"},"C":{"ha":600,"x_min":0,"x_max":0,"o":"m 0 0 l 0 -800 l 200 -800 l 200 0 l -200 0 z"},"D":{"ha":600,"x_min":0,"x_max":0,"o":"m 0 0 l 0 -800 l 200 -800 l 200 0 l -200 0 z"},"E":{"ha":600,"x_min":0,"x_max":0,"o":"m 0 0 l 0 -800 l 200 -800 l 200 0 l -200 0 z"},"F":{"ha":600,"x_min":0,"x_max":0,"o":"m 0 0 l 0 -800 l 200 -800 l 200 0 l -200 0 z"},"G":{"ha":600,"x_min":0,"x_max":0,"o":"m 0 0 l 0 -800 l 200 -800 l 200 0 l -200 0 z"},"H":{"ha":600,"x_min":0,"x_max":0,"o":"m 0 0 l 0 -800 l 200 -800 l 200 0 l -200 0 z"},"I":{"ha":600,"x_min":0,"x_max":0,"o":"m 0 0 l 0 -800 l 200 -800 l 200 0 l -200 0 z"},"J":{"ha":600,"x_min":0,"x_max":0,"o":"m 0 0 l 0 -800 l 200 -800 l 200 0 l -200 0 z"},"K":{"ha":600,"x_min":0,"x_max":0,"o":"m 0 0 l 0 -800 l 200 -800 l 200 0 l -200 0 z"},"L":{"ha":600,"x_min":0,"x_max":0,"o":"m 0 0 l 0 -800 l 200 -800 l 200 0 l -200 0 z"},"M":{"ha":600,"x_min":0,"x_max":0,"o":"m 0 0 l 0 -800 l 200 -800 l 200 0 l -200 0 z"},"N":{"ha":600,"x_min":0,"x_max":0,"o":"m 0 0 l 0 -800 l 200 -800 l 200 0 l -200 0 z"},"O":{"ha":600,"x_min":0,"x_max":0,"o":"m 0 0 l 0 -800 l 200 -800 l 200 0 l -200 0 z"},"P":{"ha":600,"x_min":0,"x_max":0,"o":"m 0 0 l 0 -800 l 200 -800 l 200 0 l -200 0 z"},"Q":{"ha":600,"x_min":0,"x_max":0,"o":"m 0 0 l 0 -800 l 200 -800 l 200 0 l -200 0 z"},"R":{"ha":600,"x_min":0,"x_max":0,"o":"m 0 0 l 0 -800 l 200 -800 l 200 0 l -200 0 z"},"S":{"ha":600,"x_min":0,"x_max":0,"o":"m 0 0 l 0 -800 l 200 -800 l 200 0 l -200 0 z"},"T":{"ha":600,"x_min":0,"x_max":0,"o":"m 0 0 l 0 -800 l 200 -800 l 200 0 l -200 0 z"},"U":{"ha":600,"x_min":0,"x_max":0,"o":"m 0 0 l 0 -800 l 200 -800 l 200 0 l -200 0 z"},"V":{"ha":600,"x_min":0,"x_max":0,"o":"m 0 0 l 0 -800 l 200 -800 l 200 0 l -200 0 z"},"W":{"ha":600,"x_min":0,"x_max":0,"o":"m 0 0 l 0 -800 l 200 -800 l 200 0 l -200 0 z"},"X":{"ha":600,"x_min":0,"x_max":0,"o":"m 0 0 l 0 -800 l 200 -800 l 200 0 l -200 0 z"},"Y":{"ha":600,"x_min":0,"x_max":0,"o":"m 0 0 l 0 -800 l 200 -800 l 200 0 l -200 0 z"},"Z":{"ha":600,"x_min":0,"x_max":0,"o":"m 0 0 l 0 -800 l 200 -800 l 200 0 l -200 0 z"},"[":{"ha":600,"x_min":0,"x_max":0,"o":"m 0 0 l 0 -800 l 200 -800 l 200 0 l -200 0 z"},"\\":{"ha":600,"x_min":0,"x_max":0,"o":"m 0 0 l 0 -800 l 200 -800 l 200 0 l -200 0 z"},"]":{"ha":600,"x_min":0,"x_max":0,"o":"m 0 0 l 0 -800 l 200 -800 l 200 0 l -200 0 z"},"^":{"ha":600,"x_min":0,"x_max":0,"o":"m 0 0 l 0 -800 l 200 -800 l 200 0 l -200 0 z"},"_":{"ha":600,"x_min":0,"x_max":0,"o":"m 0 0 l 0 -100 l 200 -100 l 200 0 l -200 0 z"},"`":{"ha":600,"x_min":0,"x_max":0,"o":"m 0 -700 l 0 -800 l 200 -800 l 200 -700 l -200 0 z"},"a":{"ha":600,"x_min":0,"x_max":0,"o":"m 0 0 l 0 -800 l 200 -800 l 200 0 l -200 0 z"},"b":{"ha":600,"x_min":0,"x_max":0,"o":"m 0 0 l 0 -800 l 200 -800 l 200 0 l -200 0 z"},"c":{"ha":600,"x_min":0,"x_max":0,"o":"m 0 0 l 0 -800 l 200 -800 l 200 0 l -200 0 z"},"d":{"ha":600,"x_min":0,"x_max":0,"o":"m 0 0 l 0 -800 l 200 -800 l 200 0 l -200 0 z"},"e":{"ha":600,"x_min":0,"x_max":0,"o":"m 0 0 l 0 -800 l 200 -800 l 200 0 l -200 0 z"},"f":{"ha":600,"x_min":0,"x_max":0,"o":"m 0 0 l 0 -800 l 200 -800 l 200 0 l -200 0 z"},"g":{"ha":600,"x_min":0,"x_max":0,"o":"m 0 0 l 0 -800 l 200 -800 l 200 0 l -200 0 z"},"h":{"ha":600,"x_min":0,"x_max":0,"o":"m 0 0 l 0 -800 l 200 -800 l 200 0 l -200 0 z"},"i":{"ha":600,"x_min":0,"x_max":0,"o":"m 0 0 l 0 -800 l 200 -800 l 200 0 l -200 0 z"},"j":{"ha":600,"x_min":0,"x_max":0,"o":"m 0 0 l 0 -800 l 200 -800 l 200 0 l -200 0 z"},"k":{"ha":600,"x_min":0,"x_max":0,"o":"m 0 0 l 0 -800 l 200 -800 l 200 0 l -200 0 z"},"l":{"ha":600,"x_min":0,"x_max":0,"o":"m 0 0 l 0 -800 l 200 -800 l 200 0 l -200 0 z"},"m":{"ha":600,"x_min":0,"x_max":0,"o":"m 0 0 l 0 -800 l 200 -800 l 200 0 l -200 0 z"},"n":{"ha":600,"x_min":0,"x_max":0,"o":"m 0 0 l 0 -800 l 200 -800 l 200 0 l -200 0 z"},"o":{"ha":600,"x_min":0,"x_max":0,"o":"m 0 0 l 0 -800 l 200 -800 l 200 0 l -200 0 z"},"p":{"ha":600,"x_min":0,"x_max":0,"o":"m 0 0 l 0 -800 l 200 -800 l 200 0 l -200 0 z"},"q":{"ha":600,"x_min":0,"x_max":0,"o":"m 0 0 l 0 -800 l 200 -800 l 200 0 l -200 0 z"},"r":{"ha":600,"x_min":0,"x_max":0,"o":"m 0 0 l 0 -800 l 200 -800 l 200 0 l -200 0 z"},"s":{"ha":600,"x_min":0,"x_max":0,"o":"m 0 0 l 0 -800 l 200 -800 l 200 0 l -200 0 z"},"t":{"ha":600,"x_min":0,"x_max":0,"o":"m 0 0 l 0 -800 l 200 -800 l 200 0 l -200 0 z"},"u":{"ha":600,"x_min":0,"x_max":0,"o":"m 0 0 l 0 -800 l 200 -800 l 200 0 l -200 0 z"},"v":{"ha":600,"x_min":0,"x_max":0,"o":"m 0 0 l 0 -800 l 200 -800 l 200 0 l -200 0 z"},"w":{"ha":600,"x_min":0,"x_max":0,"o":"m 0 0 l 0 -800 l 200 -800 l 200 0 l -200 0 z"},"x":{"ha":600,"x_min":0,"x_max":0,"o":"m 0 0 l 0 -800 l 200 -800 l 200 0 l -200 0 z"},"y":{"ha":600,"x_min":0,"x_max":0,"o":"m 0 0 l 0 -800 l 200 -800 l 200 0 l -200 0 z"},"z":{"ha":600,"x_min":0,"x_max":0,"o":"m 0 0 l 0 -800 l 200 -800 l 200 0 l -200 0 z"},"{":{"ha":600,"x_min":0,"x_max":0,"o":"m 0 0 l 0 -800 l 200 -800 l 200 0 l -200 0 z"},"|":{"ha":600,"x_min":0,"x_max":0,"o":"m 0 0 l 0 -800 l 200 -800 l 200 0 l -200 0 z"},"}":{"ha":600,"x_min":0,"x_max":0,"o":"m 0 0 l 0 -800 l 200 -800 l 200 0 l -200 0 z"},"~":{"ha":600,"x_min":0,"x_max":0,"o":"m 0 -400 l 0 -500 l 200 -500 l 200 -400 l -200 0 z"}}}
